<svg width="500" height="500" version="1.1" xmlns="http://www.w3.org/2000/svg" desc="Created with imagetracer.js version 1.2.6" ><path fill="rgb(211,212,213)" stroke="rgb(211,212,213)" stroke-width="1" opacity="1" d="M 294.5 125 L 295 146.5 L 294 146.5 L 294.5 125 Z " /><path fill="rgb(211,212,213)" stroke="rgb(211,212,213)" stroke-width="1" opacity="1" d="M 279.5 127 Q 282.7 130.3 281 138.5 L 257.5 174 L 94 173.5 L 249.5 173 L 251 171.5 L 279.5 127 Z " /><path fill="rgb(211,212,213)" stroke="rgb(211,212,213)" stroke-width="1" opacity="1" d="M 284.5 132 L 283.5 134 L 284.5 132 Z " /><path fill="rgb(211,212,213)" stroke="rgb(211,212,213)" stroke-width="1" opacity="1" d="M 295.5 173 L 456.5 173 L 457 175.5 L 456 175.5 L 455.5 174 L 295.5 174 L 295.5 173 Z " /><path fill="rgb(211,212,213)" stroke="rgb(211,212,213)" stroke-width="1" opacity="1" d="M 81.5 181 L 91.5 181 L 92 182.5 L 57 307 L 220 307.5 L 202 368.5 L 229 376.5 L 226 387 L 189 377 L 206 314 L 44.5 314 L 44 310.5 L 76 199.5 L 79 185.5 L 81.5 181 Z " /><path fill="rgb(211,212,213)" stroke="rgb(211,212,213)" stroke-width="1" opacity="1" d="M 260.5 307 L 408 307.5 L 406 314 L 258.5 314 L 258 312.5 L 260.5 307 Z " /><path fill="rgb(211,212,213)" stroke="rgb(211,212,213)" stroke-width="1" opacity="1" d="M 239.5 378 L 238.5 380 L 239.5 378 Z " /><path fill="rgb(254,254,255)" stroke="rgb(254,254,255)" stroke-width="1" opacity="1" d="M 294.5 121 L 295 124.5 L 294 124.5 L 294.5 121 Z " /><path fill="rgb(254,254,255)" stroke="rgb(254,254,255)" stroke-width="1" opacity="1" d="M 280.5 125 L 281 128.5 L 280 128.5 L 279.5 127 L 278 127.5 L 280.5 125 Z " /><path fill="rgb(254,254,255)" stroke="rgb(254,254,255)" stroke-width="1" opacity="1" d="M 277.5 129 L 277 130.5 L 275.5 133 L 276 131.5 L 277.5 129 Z " /><path fill="rgb(254,254,255)" stroke="rgb(254,254,255)" stroke-width="1" opacity="1" d="M 274.5 134 L 273.5 136 L 274.5 134 Z " /><path fill="rgb(254,254,255)" stroke="rgb(254,254,255)" stroke-width="1" opacity="1" d="M 272.5 137 L 271.5 139 L 272.5 137 Z " /><path fill="rgb(254,254,255)" stroke="rgb(254,254,255)" stroke-width="1" opacity="1" d="M 270.5 140 L 269.5 142 L 270.5 140 Z " /><path fill="rgb(254,254,255)" stroke="rgb(254,254,255)" stroke-width="1" opacity="1" d="M 268.5 143 L 267.5 145 L 268.5 143 Z " /><path fill="rgb(254,254,255)" stroke="rgb(254,254,255)" stroke-width="1" opacity="1" d="M 266.5 146 L 266 147.5 L 264.5 150 L 265 148.5 L 266.5 146 Z " /><path fill="rgb(254,254,255)" stroke="rgb(254,254,255)" stroke-width="1" opacity="1" d="M 263.5 151 L 262.5 153 L 263.5 151 Z " /><path fill="rgb(254,254,255)" stroke="rgb(254,254,255)" stroke-width="1" opacity="1" d="M 261.5 154 L 260.5 156 L 261.5 154 Z " /><path fill="rgb(254,254,255)" stroke="rgb(254,254,255)" stroke-width="1" opacity="1" d="M 259.5 157 L 258.5 159 L 259.5 157 Z " /><path fill="rgb(254,254,255)" stroke="rgb(254,254,255)" stroke-width="1" opacity="1" d="M 257.5 160 L 256.5 162 L 257.5 160 Z " /><path fill="rgb(254,254,255)" stroke="rgb(254,254,255)" stroke-width="1" opacity="1" d="M 255.5 163 L 255 164.5 L 253.5 167 L 254 165.5 L 255.5 163 Z " /><path fill="rgb(254,254,255)" stroke="rgb(254,254,255)" stroke-width="1" opacity="1" d="M 252.5 168 L 251.5 170 L 252.5 168 Z " /><path fill="rgb(254,254,255)" stroke="rgb(254,254,255)" stroke-width="1" opacity="1" d="M 250.5 171 L 249.5 173 L 250.5 171 Z " /><path fill="rgb(254,254,255)" stroke="rgb(254,254,255)" stroke-width="1" opacity="1" d="M 43.5 312 L 44 314 L 205.5 314 L 206 317.5 L 205 317.5 L 204.5 315 L 43.5 315 L 43.5 312 Z " /><path fill="rgb(254,254,255)" stroke="rgb(254,254,255)" stroke-width="1" opacity="1" d="M 406.5 312 L 407 313.5 L 405.5 315 L 258.5 315 L 258.5 314 L 405.5 314 L 406.5 312 Z " /><path fill="rgb(254,254,255)" stroke="rgb(254,254,255)" stroke-width="1" opacity="1" d="M 203.5 322 L 204 324.5 L 203 324.5 L 203.5 322 Z " /><path fill="rgb(254,254,255)" stroke="rgb(254,254,255)" stroke-width="1" opacity="1" d="M 207.5 382 L 210 382.5 L 207.5 383 L 207.5 382 Z " /><path fill="rgb(254,254,255)" stroke="rgb(254,254,255)" stroke-width="1" opacity="1" d="M 214.5 384 L 217 384.5 L 214.5 385 L 214.5 384 Z " /><path fill="rgb(255,255,255)" stroke="rgb(255,255,255)" stroke-width="1" opacity="1" d="M 0 0 L 500 0 L 500 500 L 0 500 L 0 0 Z M 294 118 L 282 136 L 281 125 L 251 171 L 249 173 L 95 173 L 92 179 L 92 181 L 80 181 L 43 313 L 44 315 L 205 315 L 188 377 L 226 388 L 230 377 L 240 380 L 258 318 L 259 315 L 406 315 L 408 310 L 409 307 L 420 307 L 457 177 L 457 173 L 295 173 L 295 122 L 294 118 Z " /><path fill="rgb(37,96,227)" stroke="rgb(37,96,227)" stroke-width="1" opacity="1" d="M 294.5 147 L 295 161.5 L 294 161.5 L 294.5 147 Z " /><path fill="rgb(37,96,227)" stroke="rgb(37,96,227)" stroke-width="1" opacity="1" d="M 258.5 174 L 295 185.5 L 240 377.5 L 238.5 379 L 207.5 371 L 202 368.5 L 258.5 174 Z " /><path fill="rgb(0,0,0)" stroke="rgb(0,0,0)" stroke-width="1" opacity="1" d="M 293.5 119 L 294 161.5 L 295 162.5 L 295 174 L 455.5 174 L 456 176.5 L 421 298.5 L 420 305.5 L 418.5 307 L 260.5 307 L 260 305.5 L 295 185.5 L 258.5 174 L 220 307 L 57.5 307 L 57 305.5 L 94 174 L 257.5 174 L 260 171.5 L 293.5 119 Z " /></svg>