<svg width="500" height="500" version="1.1" xmlns="http://www.w3.org/2000/svg" desc="Created with imagetracer.js version 1.2.6" ><path fill="rgb(38,97,226)" stroke="rgb(38,97,226)" stroke-width="1" opacity="1" d="M 287.5 40 L 288 53.5 L 287 53.5 L 287.5 40 Z " /><path fill="rgb(38,97,226)" stroke="rgb(38,97,226)" stroke-width="1" opacity="1" d="M 251.5 80 L 280.5 89 L 288 90 L 233 285 L 218.5 282 L 195 274.5 L 251.5 80 Z " /><path fill="rgb(38,97,226)" stroke="rgb(38,97,226)" stroke-width="1" opacity="1" d="M 74.5 331 L 94 331.5 L 74.5 332 L 74.5 331 Z " /><path fill="rgb(38,97,226)" stroke="rgb(38,97,226)" stroke-width="1" opacity="1" d="M 284.5 331 L 303.5 331 L 304 333.5 L 294 379.5 L 293 390.5 L 296 398.5 L 298.5 401 Q 304 405.5 315.5 404 Q 324.5 401.5 329 394.5 L 334 380.5 L 342 336.5 L 344.5 331 L 362.5 331 Q 363.5 331 363 335.5 L 351 392.5 Q 346 406 335.5 414 L 322.5 420 L 307.5 422 L 306.5 421 L 297.5 421 L 288.5 418 L 278 409.5 L 273 398.5 Q 274.7 392.3 272 390.5 L 282 336.5 L 284.5 331 Z " /><path fill="rgb(38,97,226)" stroke="rgb(38,97,226)" stroke-width="1" opacity="1" d="M 410.5 351 L 426.5 352 Q 434.9 355.1 440 361.5 L 446 375.5 L 446 388.5 Q 442.4 406.4 429.5 415 Q 423.5 419.5 414.5 421 L 402.5 421 Q 393.1 419.4 388 413.5 L 386.5 411 L 380 444 L 360 445 L 378 352 L 396.5 352 L 397 354.5 L 396 357.5 L 398.5 356 L 410.5 351 Z M 408 367 L 399 371 Q 393 375 391 384 Q 390 392 392 398 Q 395 404 404 405 Q 414 405 420 400 L 426 389 Q 428 378 424 374 Q 420 366 408 367 Z " /><path fill="rgb(38,97,226)" stroke="rgb(38,97,226)" stroke-width="1" opacity="1" d="M 267.5 353 L 266.5 355 L 267.5 353 Z " /><path fill="rgb(38,97,226)" stroke="rgb(38,97,226)" stroke-width="1" opacity="1" d="M 165.5 355 L 166.5 357 L 165.5 355 Z " /><path fill="rgb(38,97,226)" stroke="rgb(38,97,226)" stroke-width="1" opacity="1" d="M 261.5 358 L 260.5 360 L 261.5 358 Z " /><path fill="rgb(38,97,226)" stroke="rgb(38,97,226)" stroke-width="1" opacity="1" d="M 233.5 360 L 232.5 362 L 233.5 360 Z " /><path fill="rgb(38,97,226)" stroke="rgb(38,97,226)" stroke-width="1" opacity="1" d="M 254.5 364 L 253.5 366 L 254.5 364 Z " /><path fill="rgb(38,97,226)" stroke="rgb(38,97,226)" stroke-width="1" opacity="1" d="M 222.5 369 L 221.5 371 L 222.5 369 Z " /><path fill="rgb(38,97,226)" stroke="rgb(38,97,226)" stroke-width="1" opacity="1" d="M 248.5 369 L 247.5 371 L 248.5 369 Z " /><path fill="rgb(38,97,226)" stroke="rgb(38,97,226)" stroke-width="1" opacity="1" d="M 242.5 374 L 241.5 376 L 242.5 374 Z " /><path fill="rgb(38,97,226)" stroke="rgb(38,97,226)" stroke-width="1" opacity="1" d="M 153.5 376 L 154 381.5 L 153 381.5 L 153.5 376 Z " /><path fill="rgb(38,97,226)" stroke="rgb(38,97,226)" stroke-width="1" opacity="1" d="M 236.5 379 L 234.5 382 L 236.5 379 Z " /><path fill="rgb(38,97,226)" stroke="rgb(38,97,226)" stroke-width="1" opacity="1" d="M 213.5 397 L 212.5 399 L 213.5 397 Z " /><path fill="rgb(38,97,226)" stroke="rgb(38,97,226)" stroke-width="1" opacity="1" d="M 207.5 402 L 206.5 404 L 207.5 402 Z " /><path fill="rgb(0,0,0)" stroke="rgb(0,0,0)" stroke-width="1" opacity="1" d="M 286.5 25 L 288 80 L 450 80.5 L 435 130.5 L 414 208.5 L 411.5 213 L 253 212.5 L 288 90 L 280.5 89 L 251.5 80 L 214 211.5 L 212.5 213 L 50 212.5 L 87 80 L 250.5 80 L 253 77.5 L 286.5 25 Z " /><path fill="rgb(0,0,0)" stroke="rgb(0,0,0)" stroke-width="1" opacity="1" d="M 202 326 L 222 326.5 L 211 377.5 L 212.5 378 L 244.5 352 L 268.5 352 L 268.5 353 L 234 381.5 L 257 420 L 235.5 420 L 233 417.5 L 218.5 394 L 206 403.5 L 203 420 L 184.5 420 Q 183.5 420 184 415.5 L 202 326 Z " /><path fill="rgb(0,0,0)" stroke="rgb(0,0,0)" stroke-width="1" opacity="1" d="M 73 332 L 94 332.5 L 76 420 L 56.5 420 L 56 417.5 L 73 332 Z " /><path fill="rgb(0,0,0)" stroke="rgb(0,0,0)" stroke-width="1" opacity="1" d="M 143.5 351 Q 161.5 349.5 169 358.5 Q 174.5 365 174 377.5 L 166 418.5 L 164.5 420 L 146.5 420 L 146 417.5 L 154 381.5 L 154 376.5 L 151 370 Q 146.8 366.6 136.5 368 Q 129.3 369.8 126 375.5 L 122 384.5 L 116 420 L 96.5 420 L 96 418.5 L 109 353.5 L 110.5 352 L 127.5 352 L 128 353.5 L 127 358.5 L 130.5 356 L 143.5 351 Z " /><path fill="rgb(209,211,214)" stroke="rgb(209,211,214)" stroke-width="1" opacity="1" d="M 286.5 24 L 288 24.5 L 288 39.5 L 287 39.5 L 287 25.5 L 286.5 24 Z " /><path fill="rgb(209,211,214)" stroke="rgb(209,211,214)" stroke-width="1" opacity="1" d="M 285.5 26 L 284.5 28 L 285.5 26 Z " /><path fill="rgb(209,211,214)" stroke="rgb(209,211,214)" stroke-width="1" opacity="1" d="M 273.5 32 L 274 42.5 L 275 43.5 L 250.5 80 L 87 79.5 L 242.5 79 L 245 76.5 L 273.5 32 Z " /><path fill="rgb(209,211,214)" stroke="rgb(209,211,214)" stroke-width="1" opacity="1" d="M 288.5 77 L 289 79 L 450 79.5 L 288 80 L 288.5 77 Z " /><path fill="rgb(209,211,214)" stroke="rgb(209,211,214)" stroke-width="1" opacity="1" d="M 74 87 L 84.5 87 L 85 89.5 L 50 213 L 212.5 213 L 213 214.5 L 195 274.5 L 222 282.5 L 219 293 L 182 283 L 198 227.5 L 199 220 L 37.5 220 L 37 217.5 L 74 87 Z " /><path fill="rgb(209,211,214)" stroke="rgb(209,211,214)" stroke-width="1" opacity="1" d="M 253 213 L 400.5 213 L 401 214.5 L 399 220 L 251 219.5 L 253 213 Z " /><path fill="rgb(209,211,214)" stroke="rgb(209,211,214)" stroke-width="1" opacity="1" d="M 363.5 331 L 364 333.5 L 363 333.5 L 363.5 331 Z " /><path fill="rgb(209,211,214)" stroke="rgb(209,211,214)" stroke-width="1" opacity="1" d="M 192 335 L 200 335 L 200 338.5 L 183 419.5 L 195 420.5 L 193 429 L 173.5 429 L 173 427.5 L 192 335 Z " /><path fill="rgb(209,211,214)" stroke="rgb(209,211,214)" stroke-width="1" opacity="1" d="M 362.5 336 L 363 338.5 L 362 338.5 L 362.5 336 Z " /><path fill="rgb(209,211,214)" stroke="rgb(209,211,214)" stroke-width="1" opacity="1" d="M 71.5 339 L 71 340.5 L 56 420 L 67.5 420 L 68 421.5 L 66 429 L 46.5 429 Q 45.5 429 46 424.5 L 63 340 L 70.5 340 L 71.5 339 Z " /><path fill="rgb(209,211,214)" stroke="rgb(209,211,214)" stroke-width="1" opacity="1" d="M 281.5 339 L 282 340.5 L 272 390.5 L 275 404.5 L 282.5 414 L 293.5 420 L 308.5 422 L 309.5 421 L 322.5 420 L 331.5 416 L 326.5 422 Q 319.5 428 308.5 430 L 287.5 430 Q 274.6 427.4 268 418.5 Q 261.2 410.8 262 395.5 L 273 340 L 280.5 340 L 281.5 339 Z " /><path fill="rgb(209,211,214)" stroke="rgb(209,211,214)" stroke-width="1" opacity="1" d="M 341.5 339 L 342 340.5 L 333 384.5 Q 330.6 395.6 322.5 401 L 318.5 403 L 320 400.5 L 324 388.5 L 333 340 L 340.5 340 L 341.5 339 Z " /><path fill="rgb(209,211,214)" stroke="rgb(209,211,214)" stroke-width="1" opacity="1" d="M 147.5 350 L 152 350.5 L 147.5 351 L 147.5 350 Z " /><path fill="rgb(209,211,214)" stroke="rgb(209,211,214)" stroke-width="1" opacity="1" d="M 109.5 351 L 128 351.5 L 109.5 352 L 109.5 351 Z " /><path fill="rgb(209,211,214)" stroke="rgb(209,211,214)" stroke-width="1" opacity="1" d="M 244.5 351 L 269.5 351 L 270 352.5 L 268.5 352 L 244.5 352 L 244.5 351 Z " /><path fill="rgb(209,211,214)" stroke="rgb(209,211,214)" stroke-width="1" opacity="1" d="M 379.5 351 L 397 351.5 L 379.5 352 L 379.5 351 Z " /><path fill="rgb(209,211,214)" stroke="rgb(209,211,214)" stroke-width="1" opacity="1" d="M 241.5 353 L 239.5 356 L 241.5 353 Z " /><path fill="rgb(209,211,214)" stroke="rgb(209,211,214)" stroke-width="1" opacity="1" d="M 127.5 355 L 128.5 357 L 130 356.5 Q 128.5 359.5 127 356.5 L 127.5 355 Z " /><path fill="rgb(209,211,214)" stroke="rgb(209,211,214)" stroke-width="1" opacity="1" d="M 265.5 355 L 263.5 358 L 265.5 355 Z " /><path fill="rgb(209,211,214)" stroke="rgb(209,211,214)" stroke-width="1" opacity="1" d="M 396.5 355 L 397 357.5 L 396 357.5 L 396.5 355 Z " /><path fill="rgb(209,211,214)" stroke="rgb(209,211,214)" stroke-width="1" opacity="1" d="M 433.5 355 L 434.5 357 L 433.5 355 Z " /><path fill="rgb(209,211,214)" stroke="rgb(209,211,214)" stroke-width="1" opacity="1" d="M 235.5 358 L 234.5 360 L 235.5 358 Z " /><path fill="rgb(209,211,214)" stroke="rgb(209,211,214)" stroke-width="1" opacity="1" d="M 107.5 360 L 107 361.5 L 96 420 L 106.5 420 L 107 422.5 L 104.5 429 L 86.5 429 L 86 425.5 L 99 361 L 106.5 361 L 107.5 360 Z " /><path fill="rgb(209,211,214)" stroke="rgb(209,211,214)" stroke-width="1" opacity="1" d="M 259.5 360 L 256.5 364 L 259.5 360 Z " /><path fill="rgb(209,211,214)" stroke="rgb(209,211,214)" stroke-width="1" opacity="1" d="M 376.5 360 L 377 361.5 L 360 445 L 371 445 L 371 449.5 L 368.5 454 L 350.5 454 L 350 451.5 L 368 361 L 375.5 361 L 376.5 360 Z " /><path fill="rgb(209,211,214)" stroke="rgb(209,211,214)" stroke-width="1" opacity="1" d="M 230.5 362 L 228.5 365 L 230.5 362 Z " /><path fill="rgb(209,211,214)" stroke="rgb(209,211,214)" stroke-width="1" opacity="1" d="M 440.5 362 L 441.5 364 L 440.5 362 Z " /><path fill="rgb(209,211,214)" stroke="rgb(209,211,214)" stroke-width="1" opacity="1" d="M 252.5 366 L 250.5 369 L 252.5 366 Z " /><path fill="rgb(209,211,214)" stroke="rgb(209,211,214)" stroke-width="1" opacity="1" d="M 224.5 367 L 223.5 369 L 224.5 367 Z " /><path fill="rgb(209,211,214)" stroke="rgb(209,211,214)" stroke-width="1" opacity="1" d="M 407.5 367 Q 420 366 424 373.5 Q 427.8 378.2 426 388.5 L 419.5 400 L 414.5 403 L 414 401.5 Q 417.8 396.8 416 386.5 Q 414.6 380.4 409.5 378 Q 405.5 375 397.5 376 L 393.5 378 L 396 374.5 L 398.5 371 L 407.5 367 Z " /><path fill="rgb(209,211,214)" stroke="rgb(209,211,214)" stroke-width="1" opacity="1" d="M 137.5 368 Q 148.6 366.4 152 372.5 L 153 374.5 L 153 385.5 L 150 395.5 L 146 420 L 156.5 420 L 157 421.5 L 155 429 L 136.5 429 Q 135.5 429 136 424.5 L 143 393.5 L 143 383.5 L 138.5 378 L 126.5 377 L 125 377.5 L 130.5 371 L 137.5 368 Z " /><path fill="rgb(209,211,214)" stroke="rgb(209,211,214)" stroke-width="1" opacity="1" d="M 219.5 371 L 217.5 374 L 219.5 371 Z " /><path fill="rgb(209,211,214)" stroke="rgb(209,211,214)" stroke-width="1" opacity="1" d="M 246.5 371 L 244.5 374 L 246.5 371 Z " /><path fill="rgb(209,211,214)" stroke="rgb(209,211,214)" stroke-width="1" opacity="1" d="M 445.5 372 L 446 374.5 L 445 374.5 L 445.5 372 Z " /><path fill="rgb(209,211,214)" stroke="rgb(209,211,214)" stroke-width="1" opacity="1" d="M 213.5 376 L 212.5 378 L 213.5 376 Z " /><path fill="rgb(209,211,214)" stroke="rgb(209,211,214)" stroke-width="1" opacity="1" d="M 240.5 376 L 238.5 379 L 240.5 376 Z " /><path fill="rgb(209,211,214)" stroke="rgb(209,211,214)" stroke-width="1" opacity="1" d="M 446.5 380 L 447 383.5 L 446 383.5 L 446.5 380 Z " /><path fill="rgb(209,211,214)" stroke="rgb(209,211,214)" stroke-width="1" opacity="1" d="M 235.5 383 L 236.5 385 L 235.5 383 Z " /><path fill="rgb(209,211,214)" stroke="rgb(209,211,214)" stroke-width="1" opacity="1" d="M 293.5 385 L 294 390.5 L 293 390.5 L 293.5 385 Z " /><path fill="rgb(209,211,214)" stroke="rgb(209,211,214)" stroke-width="1" opacity="1" d="M 217.5 394 L 220 395.5 L 234 420 L 241.5 420 L 243 421.5 L 247 428.5 L 224 429 L 208 402.5 L 217.5 394 Z " /><path fill="rgb(209,211,214)" stroke="rgb(209,211,214)" stroke-width="1" opacity="1" d="M 296.5 398 L 298.5 401 L 296.5 398 Z " /><path fill="rgb(209,211,214)" stroke="rgb(209,211,214)" stroke-width="1" opacity="1" d="M 345.5 403 L 344.5 405 L 345.5 403 Z " /><path fill="rgb(209,211,214)" stroke="rgb(209,211,214)" stroke-width="1" opacity="1" d="M 403.5 404 L 409 404.5 L 403.5 405 L 403.5 404 Z " /><path fill="rgb(209,211,214)" stroke="rgb(209,211,214)" stroke-width="1" opacity="1" d="M 249.5 406 L 250.5 408 L 249.5 406 Z " /><path fill="rgb(209,211,214)" stroke="rgb(209,211,214)" stroke-width="1" opacity="1" d="M 342.5 407 L 337.5 413 L 342.5 407 Z " /><path fill="rgb(209,211,214)" stroke="rgb(209,211,214)" stroke-width="1" opacity="1" d="M 437.5 407 L 431.5 414 L 437.5 407 Z " /><path fill="rgb(209,211,214)" stroke="rgb(209,211,214)" stroke-width="1" opacity="1" d="M 386.5 411 L 390.5 416 L 402.5 421 L 414.5 421 L 425.5 417 L 426 419 L 411.5 428 Q 404.3 431.3 392.5 430 L 383 426.5 L 386.5 411 Z " /><path fill="rgb(209,211,214)" stroke="rgb(209,211,214)" stroke-width="1" opacity="1" d="M 372.5 444 L 380 444.5 L 372.5 445 L 372.5 444 Z " /><path fill="rgb(254,254,254)" stroke="rgb(254,254,254)" stroke-width="1" opacity="1" d="M 273.5 31 L 272.5 33 L 273.5 31 Z " /><path fill="rgb(254,254,254)" stroke="rgb(254,254,254)" stroke-width="1" opacity="1" d="M 271.5 34 L 270.5 36 L 271.5 34 Z " /><path fill="rgb(254,254,254)" stroke="rgb(254,254,254)" stroke-width="1" opacity="1" d="M 269.5 37 L 268.5 39 L 269.5 37 Z " /><path fill="rgb(254,254,254)" stroke="rgb(254,254,254)" stroke-width="1" opacity="1" d="M 267.5 40 L 267 41.5 L 263.5 47 L 264 45.5 L 267.5 40 Z " /><path fill="rgb(254,254,254)" stroke="rgb(254,254,254)" stroke-width="1" opacity="1" d="M 262.5 48 L 261.5 50 L 262.5 48 Z " /><path fill="rgb(254,254,254)" stroke="rgb(254,254,254)" stroke-width="1" opacity="1" d="M 260.5 51 L 259.5 53 L 260.5 51 Z " /><path fill="rgb(254,254,254)" stroke="rgb(254,254,254)" stroke-width="1" opacity="1" d="M 258.5 54 L 257.5 56 L 258.5 54 Z " /><path fill="rgb(254,254,254)" stroke="rgb(254,254,254)" stroke-width="1" opacity="1" d="M 256.5 57 L 256 58.5 L 254.5 61 L 255 59.5 L 256.5 57 Z " /><path fill="rgb(254,254,254)" stroke="rgb(254,254,254)" stroke-width="1" opacity="1" d="M 253.5 62 L 252.5 64 L 253.5 62 Z " /><path fill="rgb(254,254,254)" stroke="rgb(254,254,254)" stroke-width="1" opacity="1" d="M 251.5 65 L 250.5 67 L 251.5 65 Z " /><path fill="rgb(254,254,254)" stroke="rgb(254,254,254)" stroke-width="1" opacity="1" d="M 249.5 68 L 248.5 70 L 249.5 68 Z " /><path fill="rgb(254,254,254)" stroke="rgb(254,254,254)" stroke-width="1" opacity="1" d="M 247.5 71 L 246.5 73 L 247.5 71 Z " /><path fill="rgb(254,254,254)" stroke="rgb(254,254,254)" stroke-width="1" opacity="1" d="M 288.5 73 L 289 76.5 L 288 76.5 L 288.5 73 Z " /><path fill="rgb(254,254,254)" stroke="rgb(254,254,254)" stroke-width="1" opacity="1" d="M 245.5 74 L 245 75.5 L 243.5 78 L 244 76.5 L 245.5 74 Z " /><path fill="rgb(254,254,254)" stroke="rgb(254,254,254)" stroke-width="1" opacity="1" d="M 36.5 218 L 37 220 L 199 220.5 L 36 221 L 36.5 218 Z " /><path fill="rgb(254,254,254)" stroke="rgb(254,254,254)" stroke-width="1" opacity="1" d="M 399.5 218 L 400 219.5 L 398.5 221 L 251.5 221 L 251.5 220 L 398.5 220 L 399.5 218 Z " /><path fill="rgb(254,254,254)" stroke="rgb(254,254,254)" stroke-width="1" opacity="1" d="M 197.5 225 L 198 227.5 L 197 227.5 L 197.5 225 Z " /><path fill="rgb(254,254,254)" stroke="rgb(254,254,254)" stroke-width="1" opacity="1" d="M 195.5 232 L 196 234.5 L 195 234.5 L 195.5 232 Z " /><path fill="rgb(254,254,254)" stroke="rgb(254,254,254)" stroke-width="1" opacity="1" d="M 193.5 239 L 194 241.5 L 193 241.5 L 193.5 239 Z " /><path fill="rgb(254,254,254)" stroke="rgb(254,254,254)" stroke-width="1" opacity="1" d="M 191.5 246 L 192 248.5 L 191 248.5 L 191.5 246 Z " /><path fill="rgb(254,254,254)" stroke="rgb(254,254,254)" stroke-width="1" opacity="1" d="M 189.5 253 L 190 255.5 L 189 255.5 L 189.5 253 Z " /><path fill="rgb(254,254,254)" stroke="rgb(254,254,254)" stroke-width="1" opacity="1" d="M 187.5 260 L 188 262.5 L 187 262.5 L 187.5 260 Z " /><path fill="rgb(254,254,254)" stroke="rgb(254,254,254)" stroke-width="1" opacity="1" d="M 185.5 267 L 186 269.5 L 185 269.5 L 185.5 267 Z " /><path fill="rgb(254,254,254)" stroke="rgb(254,254,254)" stroke-width="1" opacity="1" d="M 183.5 274 L 184 276.5 L 183 276.5 L 183.5 274 Z " /><path fill="rgb(254,254,254)" stroke="rgb(254,254,254)" stroke-width="1" opacity="1" d="M 221.5 283 L 222 285.5 L 221 285.5 L 221.5 283 Z " /><path fill="rgb(254,254,254)" stroke="rgb(254,254,254)" stroke-width="1" opacity="1" d="M 219.5 290 L 220 292.5 L 218 293.5 L 219.5 290 Z " /><path fill="rgb(254,254,254)" stroke="rgb(254,254,254)" stroke-width="1" opacity="1" d="M 211.5 291 L 214 291.5 L 211.5 292 L 211.5 291 Z " /><path fill="rgb(254,254,254)" stroke="rgb(254,254,254)" stroke-width="1" opacity="1" d="M 202.5 325 L 222 325.5 L 202.5 326 L 201.5 327 L 202.5 325 Z " /><path fill="rgb(254,254,254)" stroke="rgb(254,254,254)" stroke-width="1" opacity="1" d="M 192.5 334 L 200 334.5 L 192 335 L 191.5 337 L 191 335.5 L 192.5 334 Z " /><path fill="rgb(254,254,254)" stroke="rgb(254,254,254)" stroke-width="1" opacity="1" d="M 190.5 339 L 191 341.5 L 190 341.5 L 190.5 339 Z " /><path fill="rgb(254,254,254)" stroke="rgb(254,254,254)" stroke-width="1" opacity="1" d="M 62.5 341 L 63 343.5 L 62 343.5 L 62.5 341 Z " /><path fill="rgb(254,254,254)" stroke="rgb(254,254,254)" stroke-width="1" opacity="1" d="M 272.5 341 L 273 343.5 L 272 343.5 L 272.5 341 Z " /><path fill="rgb(254,254,254)" stroke="rgb(254,254,254)" stroke-width="1" opacity="1" d="M 332.5 341 L 333 343.5 L 332 343.5 L 332.5 341 Z " /><path fill="rgb(254,254,254)" stroke="rgb(254,254,254)" stroke-width="1" opacity="1" d="M 189.5 344 L 190 346.5 L 189 346.5 L 189.5 344 Z " /><path fill="rgb(254,254,254)" stroke="rgb(254,254,254)" stroke-width="1" opacity="1" d="M 61.5 346 L 62 348.5 L 61 348.5 L 61.5 346 Z " /><path fill="rgb(254,254,254)" stroke="rgb(254,254,254)" stroke-width="1" opacity="1" d="M 271.5 346 L 272 348.5 L 271 348.5 L 271.5 346 Z " /><path fill="rgb(254,254,254)" stroke="rgb(254,254,254)" stroke-width="1" opacity="1" d="M 331.5 346 L 332 348.5 L 331 348.5 L 331.5 346 Z " /><path fill="rgb(254,254,254)" stroke="rgb(254,254,254)" stroke-width="1" opacity="1" d="M 188.5 349 L 189 351.5 L 188 351.5 L 188.5 349 Z " /><path fill="rgb(254,254,254)" stroke="rgb(254,254,254)" stroke-width="1" opacity="1" d="M 413.5 350 L 416 350.5 L 413.5 351 L 413.5 350 Z " /><path fill="rgb(254,254,254)" stroke="rgb(254,254,254)" stroke-width="1" opacity="1" d="M 417.5 350 L 420 350.5 L 417.5 351 L 417.5 350 Z " /><path fill="rgb(254,254,254)" stroke="rgb(254,254,254)" stroke-width="1" opacity="1" d="M 60.5 351 L 61 353.5 L 60 353.5 L 60.5 351 Z " /><path fill="rgb(254,254,254)" stroke="rgb(254,254,254)" stroke-width="1" opacity="1" d="M 243.5 351 L 242.5 353 L 243.5 351 Z " /><path fill="rgb(254,254,254)" stroke="rgb(254,254,254)" stroke-width="1" opacity="1" d="M 270.5 351 L 271 353.5 L 270 353.5 L 270.5 351 Z " /><path fill="rgb(254,254,254)" stroke="rgb(254,254,254)" stroke-width="1" opacity="1" d="M 330.5 351 L 331 353.5 L 330 353.5 L 330.5 351 Z " /><path fill="rgb(254,254,254)" stroke="rgb(254,254,254)" stroke-width="1" opacity="1" d="M 268.5 353 L 267.5 355 L 268.5 353 Z " /><path fill="rgb(254,254,254)" stroke="rgb(254,254,254)" stroke-width="1" opacity="1" d="M 187.5 354 L 188 356.5 L 187 356.5 L 187.5 354 Z " /><path fill="rgb(254,254,254)" stroke="rgb(254,254,254)" stroke-width="1" opacity="1" d="M 166.5 355 L 169.5 359 L 166.5 355 Z " /><path fill="rgb(254,254,254)" stroke="rgb(254,254,254)" stroke-width="1" opacity="1" d="M 59.5 356 L 60 358.5 L 59 358.5 L 59.5 356 Z " /><path fill="rgb(254,254,254)" stroke="rgb(254,254,254)" stroke-width="1" opacity="1" d="M 237.5 356 L 236.5 358 L 237.5 356 Z " /><path fill="rgb(254,254,254)" stroke="rgb(254,254,254)" stroke-width="1" opacity="1" d="M 269.5 356 L 270 358.5 L 269 358.5 L 269.5 356 Z " /><path fill="rgb(254,254,254)" stroke="rgb(254,254,254)" stroke-width="1" opacity="1" d="M 329.5 356 L 330 358.5 L 329 358.5 L 329.5 356 Z " /><path fill="rgb(254,254,254)" stroke="rgb(254,254,254)" stroke-width="1" opacity="1" d="M 435.5 356 L 440.5 362 L 435.5 356 Z " /><path fill="rgb(254,254,254)" stroke="rgb(254,254,254)" stroke-width="1" opacity="1" d="M 262.5 358 L 261.5 360 L 262.5 358 Z " /><path fill="rgb(254,254,254)" stroke="rgb(254,254,254)" stroke-width="1" opacity="1" d="M 107.5 359 L 106.5 361 L 99 360.5 L 107.5 359 Z " /><path fill="rgb(254,254,254)" stroke="rgb(254,254,254)" stroke-width="1" opacity="1" d="M 186.5 359 L 187 361.5 L 186 361.5 L 186.5 359 Z " /><path fill="rgb(254,254,254)" stroke="rgb(254,254,254)" stroke-width="1" opacity="1" d="M 376.5 359 L 375.5 361 L 368 360.5 L 376.5 359 Z " /><path fill="rgb(254,254,254)" stroke="rgb(254,254,254)" stroke-width="1" opacity="1" d="M 232.5 360 L 231.5 362 L 232.5 360 Z " /><path fill="rgb(254,254,254)" stroke="rgb(254,254,254)" stroke-width="1" opacity="1" d="M 58.5 361 L 59 363.5 L 58 363.5 L 58.5 361 Z " /><path fill="rgb(254,254,254)" stroke="rgb(254,254,254)" stroke-width="1" opacity="1" d="M 268.5 361 L 269 363.5 L 268 363.5 L 268.5 361 Z " /><path fill="rgb(254,254,254)" stroke="rgb(254,254,254)" stroke-width="1" opacity="1" d="M 328.5 361 L 329 363.5 L 328 363.5 L 328.5 361 Z " /><path fill="rgb(254,254,254)" stroke="rgb(254,254,254)" stroke-width="1" opacity="1" d="M 98.5 362 L 99 364.5 L 98 364.5 L 98.5 362 Z " /><path fill="rgb(254,254,254)" stroke="rgb(254,254,254)" stroke-width="1" opacity="1" d="M 367.5 363 L 368 365.5 L 367 365.5 L 367.5 363 Z " /><path fill="rgb(254,254,254)" stroke="rgb(254,254,254)" stroke-width="1" opacity="1" d="M 185.5 364 L 186 366.5 L 185 366.5 L 185.5 364 Z " /><path fill="rgb(254,254,254)" stroke="rgb(254,254,254)" stroke-width="1" opacity="1" d="M 255.5 364 L 253.5 367 L 255.5 364 Z " /><path fill="rgb(254,254,254)" stroke="rgb(254,254,254)" stroke-width="1" opacity="1" d="M 226.5 365 L 225.5 367 L 226.5 365 Z " /><path fill="rgb(254,254,254)" stroke="rgb(254,254,254)" stroke-width="1" opacity="1" d="M 57.5 366 L 58 368.5 L 57 368.5 L 57.5 366 Z " /><path fill="rgb(254,254,254)" stroke="rgb(254,254,254)" stroke-width="1" opacity="1" d="M 267.5 366 L 268 368.5 L 267 368.5 L 267.5 366 Z " /><path fill="rgb(254,254,254)" stroke="rgb(254,254,254)" stroke-width="1" opacity="1" d="M 327.5 366 L 328 368.5 L 327 368.5 L 327.5 366 Z " /><path fill="rgb(254,254,254)" stroke="rgb(254,254,254)" stroke-width="1" opacity="1" d="M 97.5 367 L 98 369.5 L 97 369.5 L 97.5 367 Z " /><path fill="rgb(254,254,254)" stroke="rgb(254,254,254)" stroke-width="1" opacity="1" d="M 366.5 368 L 367 370.5 L 366 370.5 L 366.5 368 Z " /><path fill="rgb(254,254,254)" stroke="rgb(254,254,254)" stroke-width="1" opacity="1" d="M 184.5 369 L 185 371.5 L 184 371.5 L 184.5 369 Z " /><path fill="rgb(254,254,254)" stroke="rgb(254,254,254)" stroke-width="1" opacity="1" d="M 221.5 369 L 220.5 371 L 221.5 369 Z " /><path fill="rgb(254,254,254)" stroke="rgb(254,254,254)" stroke-width="1" opacity="1" d="M 249.5 369 L 247.5 372 L 249.5 369 Z " /><path fill="rgb(254,254,254)" stroke="rgb(254,254,254)" stroke-width="1" opacity="1" d="M 56.5 371 L 57 373.5 L 56 373.5 L 56.5 371 Z " /><path fill="rgb(254,254,254)" stroke="rgb(254,254,254)" stroke-width="1" opacity="1" d="M 266.5 371 L 267 373.5 L 266 373.5 L 266.5 371 Z " /><path fill="rgb(254,254,254)" stroke="rgb(254,254,254)" stroke-width="1" opacity="1" d="M 326.5 371 L 327 373.5 L 326 373.5 L 326.5 371 Z " /><path fill="rgb(254,254,254)" stroke="rgb(254,254,254)" stroke-width="1" opacity="1" d="M 96.5 372 L 97 374.5 L 96 374.5 L 96.5 372 Z " /><path fill="rgb(254,254,254)" stroke="rgb(254,254,254)" stroke-width="1" opacity="1" d="M 365.5 373 L 366 375.5 L 365 375.5 L 365.5 373 Z " /><path fill="rgb(254,254,254)" stroke="rgb(254,254,254)" stroke-width="1" opacity="1" d="M 183.5 374 L 184 376.5 L 183 376.5 L 183.5 374 Z " /><path fill="rgb(254,254,254)" stroke="rgb(254,254,254)" stroke-width="1" opacity="1" d="M 215.5 374 L 214.5 376 L 215.5 374 Z " /><path fill="rgb(254,254,254)" stroke="rgb(254,254,254)" stroke-width="1" opacity="1" d="M 243.5 374 L 241.5 377 L 243.5 374 Z " /><path fill="rgb(254,254,254)" stroke="rgb(254,254,254)" stroke-width="1" opacity="1" d="M 55.5 376 L 56 378.5 L 55 378.5 L 55.5 376 Z " /><path fill="rgb(254,254,254)" stroke="rgb(254,254,254)" stroke-width="1" opacity="1" d="M 265.5 376 L 266 378.5 L 265 378.5 L 265.5 376 Z " /><path fill="rgb(254,254,254)" stroke="rgb(254,254,254)" stroke-width="1" opacity="1" d="M 325.5 376 L 326 378.5 L 325 378.5 L 325.5 376 Z " /><path fill="rgb(254,254,254)" stroke="rgb(254,254,254)" stroke-width="1" opacity="1" d="M 397.5 376 L 405 376.5 L 397.5 377 L 397.5 376 Z " /><path fill="rgb(254,254,254)" stroke="rgb(254,254,254)" stroke-width="1" opacity="1" d="M 95.5 377 L 96 379.5 L 95 379.5 L 95.5 377 Z " /><path fill="rgb(254,254,254)" stroke="rgb(254,254,254)" stroke-width="1" opacity="1" d="M 126.5 377 L 130 377.5 L 126.5 378 L 126.5 377 Z " /><path fill="rgb(254,254,254)" stroke="rgb(254,254,254)" stroke-width="1" opacity="1" d="M 133.5 377 L 136 377.5 L 133.5 378 L 133.5 377 Z " /><path fill="rgb(254,254,254)" stroke="rgb(254,254,254)" stroke-width="1" opacity="1" d="M 394.5 377 L 393.5 379 L 394.5 377 Z " /><path fill="rgb(254,254,254)" stroke="rgb(254,254,254)" stroke-width="1" opacity="1" d="M 446.5 377 L 447 379.5 L 446 379.5 L 446.5 377 Z " /><path fill="rgb(254,254,254)" stroke="rgb(254,254,254)" stroke-width="1" opacity="1" d="M 137.5 378 L 142 381.5 L 138.5 379 L 137.5 378 Z " /><path fill="rgb(254,254,254)" stroke="rgb(254,254,254)" stroke-width="1" opacity="1" d="M 364.5 378 L 365 380.5 L 364 380.5 L 364.5 378 Z " /><path fill="rgb(254,254,254)" stroke="rgb(254,254,254)" stroke-width="1" opacity="1" d="M 409.5 378 L 410.5 380 L 409.5 378 Z " /><path fill="rgb(254,254,254)" stroke="rgb(254,254,254)" stroke-width="1" opacity="1" d="M 182.5 379 L 183 381.5 L 182 381.5 L 182.5 379 Z " /><path fill="rgb(254,254,254)" stroke="rgb(254,254,254)" stroke-width="1" opacity="1" d="M 237.5 379 L 236 381.5 L 235.5 383 L 235 381.5 L 237.5 379 Z " /><path fill="rgb(254,254,254)" stroke="rgb(254,254,254)" stroke-width="1" opacity="1" d="M 54.5 381 L 55 383.5 L 54 383.5 L 54.5 381 Z " /><path fill="rgb(254,254,254)" stroke="rgb(254,254,254)" stroke-width="1" opacity="1" d="M 264.5 381 L 265 383.5 L 264 383.5 L 264.5 381 Z " /><path fill="rgb(254,254,254)" stroke="rgb(254,254,254)" stroke-width="1" opacity="1" d="M 324.5 381 L 325 383.5 L 324 383.5 L 324.5 381 Z " /><path fill="rgb(254,254,254)" stroke="rgb(254,254,254)" stroke-width="1" opacity="1" d="M 412.5 381 L 415 384.5 L 414 384.5 L 412.5 381 Z " /><path fill="rgb(254,254,254)" stroke="rgb(254,254,254)" stroke-width="1" opacity="1" d="M 94.5 382 L 95 384.5 L 94 384.5 L 94.5 382 Z " /><path fill="rgb(254,254,254)" stroke="rgb(254,254,254)" stroke-width="1" opacity="1" d="M 363.5 383 L 364 385.5 L 363 385.5 L 363.5 383 Z " /><path fill="rgb(254,254,254)" stroke="rgb(254,254,254)" stroke-width="1" opacity="1" d="M 181.5 384 L 182 386.5 L 181 386.5 L 181.5 384 Z " /><path fill="rgb(254,254,254)" stroke="rgb(254,254,254)" stroke-width="1" opacity="1" d="M 53.5 386 L 54 388.5 L 53 388.5 L 53.5 386 Z " /><path fill="rgb(254,254,254)" stroke="rgb(254,254,254)" stroke-width="1" opacity="1" d="M 263.5 386 L 264 388.5 L 263 388.5 L 263.5 386 Z " /><path fill="rgb(254,254,254)" stroke="rgb(254,254,254)" stroke-width="1" opacity="1" d="M 323.5 386 L 324 388.5 L 323 388.5 L 323.5 386 Z " /><path fill="rgb(254,254,254)" stroke="rgb(254,254,254)" stroke-width="1" opacity="1" d="M 93.5 387 L 94 389.5 L 93 389.5 L 93.5 387 Z " /><path fill="rgb(254,254,254)" stroke="rgb(254,254,254)" stroke-width="1" opacity="1" d="M 362.5 388 L 363 390.5 L 362 390.5 L 362.5 388 Z " /><path fill="rgb(254,254,254)" stroke="rgb(254,254,254)" stroke-width="1" opacity="1" d="M 52.5 391 L 53 393.5 L 52 393.5 L 52.5 391 Z " /><path fill="rgb(254,254,254)" stroke="rgb(254,254,254)" stroke-width="1" opacity="1" d="M 142.5 391 L 143 393.5 L 142 393.5 L 142.5 391 Z " /><path fill="rgb(254,254,254)" stroke="rgb(254,254,254)" stroke-width="1" opacity="1" d="M 262.5 391 L 263 394.5 L 262 394.5 L 262.5 391 Z " /><path fill="rgb(254,254,254)" stroke="rgb(254,254,254)" stroke-width="1" opacity="1" d="M 92.5 392 L 93 394.5 L 92 394.5 L 92.5 392 Z " /><path fill="rgb(254,254,254)" stroke="rgb(254,254,254)" stroke-width="1" opacity="1" d="M 361.5 393 L 362 395.5 L 361 395.5 L 361.5 393 Z " /><path fill="rgb(254,254,254)" stroke="rgb(254,254,254)" stroke-width="1" opacity="1" d="M 415.5 395 L 416 397.5 L 415 397.5 L 415.5 395 Z " /><path fill="rgb(254,254,254)" stroke="rgb(254,254,254)" stroke-width="1" opacity="1" d="M 51.5 396 L 52 398.5 L 51 398.5 L 51.5 396 Z " /><path fill="rgb(254,254,254)" stroke="rgb(254,254,254)" stroke-width="1" opacity="1" d="M 141.5 396 L 142 398.5 L 141 398.5 L 141.5 396 Z " /><path fill="rgb(254,254,254)" stroke="rgb(254,254,254)" stroke-width="1" opacity="1" d="M 91.5 397 L 92 399.5 L 91 399.5 L 91.5 397 Z " /><path fill="rgb(254,254,254)" stroke="rgb(254,254,254)" stroke-width="1" opacity="1" d="M 360.5 398 L 361 400.5 L 360 400.5 L 360.5 398 Z " /><path fill="rgb(254,254,254)" stroke="rgb(254,254,254)" stroke-width="1" opacity="1" d="M 393.5 398 L 396.5 402 L 393.5 398 Z " /><path fill="rgb(254,254,254)" stroke="rgb(254,254,254)" stroke-width="1" opacity="1" d="M 299.5 400 L 300.5 402 L 299.5 400 Z " /><path fill="rgb(254,254,254)" stroke="rgb(254,254,254)" stroke-width="1" opacity="1" d="M 50.5 401 L 51 403.5 L 50 403.5 L 50.5 401 Z " /><path fill="rgb(254,254,254)" stroke="rgb(254,254,254)" stroke-width="1" opacity="1" d="M 140.5 401 L 141 403.5 L 140 403.5 L 140.5 401 Z " /><path fill="rgb(254,254,254)" stroke="rgb(254,254,254)" stroke-width="1" opacity="1" d="M 90.5 402 L 91 404.5 L 90 404.5 L 90.5 402 Z " /><path fill="rgb(254,254,254)" stroke="rgb(254,254,254)" stroke-width="1" opacity="1" d="M 307.5 403 L 310 403.5 L 307.5 404 L 307.5 403 Z " /><path fill="rgb(254,254,254)" stroke="rgb(254,254,254)" stroke-width="1" opacity="1" d="M 311.5 403 L 314 403.5 L 311.5 404 L 311.5 403 Z " /><path fill="rgb(254,254,254)" stroke="rgb(254,254,254)" stroke-width="1" opacity="1" d="M 359.5 403 L 360 405.5 L 359 405.5 L 359.5 403 Z " /><path fill="rgb(254,254,254)" stroke="rgb(254,254,254)" stroke-width="1" opacity="1" d="M 262.5 404 L 263 406.5 L 262 406.5 L 262.5 404 Z " /><path fill="rgb(254,254,254)" stroke="rgb(254,254,254)" stroke-width="1" opacity="1" d="M 209.5 405 L 210.5 407 L 209.5 405 Z " /><path fill="rgb(254,254,254)" stroke="rgb(254,254,254)" stroke-width="1" opacity="1" d="M 344.5 405 L 343.5 407 L 344.5 405 Z " /><path fill="rgb(254,254,254)" stroke="rgb(254,254,254)" stroke-width="1" opacity="1" d="M 439.5 405 L 438.5 407 L 439.5 405 Z " /><path fill="rgb(254,254,254)" stroke="rgb(254,254,254)" stroke-width="1" opacity="1" d="M 49.5 406 L 50 408.5 L 49 408.5 L 49.5 406 Z " /><path fill="rgb(254,254,254)" stroke="rgb(254,254,254)" stroke-width="1" opacity="1" d="M 139.5 406 L 140 408.5 L 139 408.5 L 139.5 406 Z " /><path fill="rgb(254,254,254)" stroke="rgb(254,254,254)" stroke-width="1" opacity="1" d="M 89.5 407 L 90 409.5 L 89 409.5 L 89.5 407 Z " /><path fill="rgb(254,254,254)" stroke="rgb(254,254,254)" stroke-width="1" opacity="1" d="M 211.5 408 L 214 411.5 L 212 410.5 L 211.5 408 Z " /><path fill="rgb(254,254,254)" stroke="rgb(254,254,254)" stroke-width="1" opacity="1" d="M 358.5 408 L 359 410.5 L 358 410.5 L 358.5 408 Z " /><path fill="rgb(254,254,254)" stroke="rgb(254,254,254)" stroke-width="1" opacity="1" d="M 48.5 411 L 49 413.5 L 48 413.5 L 48.5 411 Z " /><path fill="rgb(254,254,254)" stroke="rgb(254,254,254)" stroke-width="1" opacity="1" d="M 138.5 411 L 139 413.5 L 138 413.5 L 138.5 411 Z " /><path fill="rgb(254,254,254)" stroke="rgb(254,254,254)" stroke-width="1" opacity="1" d="M 88.5 412 L 89 414.5 L 88 414.5 L 88.5 412 Z " /><path fill="rgb(254,254,254)" stroke="rgb(254,254,254)" stroke-width="1" opacity="1" d="M 214.5 413 L 215.5 415 L 214.5 413 Z " /><path fill="rgb(254,254,254)" stroke="rgb(254,254,254)" stroke-width="1" opacity="1" d="M 336.5 413 L 335.5 415 L 336.5 413 Z " /><path fill="rgb(254,254,254)" stroke="rgb(254,254,254)" stroke-width="1" opacity="1" d="M 357.5 413 L 358 415.5 L 357 415.5 L 357.5 413 Z " /><path fill="rgb(254,254,254)" stroke="rgb(254,254,254)" stroke-width="1" opacity="1" d="M 333.5 415 L 326.5 423 L 321.5 426 L 322.5 424 L 333.5 415 Z " /><path fill="rgb(254,254,254)" stroke="rgb(254,254,254)" stroke-width="1" opacity="1" d="M 47.5 416 L 48 418.5 L 47 418.5 L 47.5 416 Z " /><path fill="rgb(254,254,254)" stroke="rgb(254,254,254)" stroke-width="1" opacity="1" d="M 137.5 416 L 138 418.5 L 137 418.5 L 137.5 416 Z " /><path fill="rgb(254,254,254)" stroke="rgb(254,254,254)" stroke-width="1" opacity="1" d="M 266.5 416 L 273 423.5 L 267 418.5 L 266.5 416 Z " /><path fill="rgb(254,254,254)" stroke="rgb(254,254,254)" stroke-width="1" opacity="1" d="M 427.5 416 L 426.5 418 L 427.5 416 Z " /><path fill="rgb(254,254,254)" stroke="rgb(254,254,254)" stroke-width="1" opacity="1" d="M 87.5 417 L 88 419.5 L 87 419.5 L 87.5 417 Z " /><path fill="rgb(254,254,254)" stroke="rgb(254,254,254)" stroke-width="1" opacity="1" d="M 217.5 418 L 218.5 420 L 217.5 418 Z " /><path fill="rgb(254,254,254)" stroke="rgb(254,254,254)" stroke-width="1" opacity="1" d="M 356.5 418 L 357 420.5 L 356 420.5 L 356.5 418 Z " /><path fill="rgb(254,254,254)" stroke="rgb(254,254,254)" stroke-width="1" opacity="1" d="M 424.5 419 L 420.5 424 L 424.5 419 Z " /><path fill="rgb(254,254,254)" stroke="rgb(254,254,254)" stroke-width="1" opacity="1" d="M 242.5 420 L 245 423.5 L 243 422.5 L 242.5 420 Z " /><path fill="rgb(254,254,254)" stroke="rgb(254,254,254)" stroke-width="1" opacity="1" d="M 46.5 421 L 47 423.5 L 46 423.5 L 46.5 421 Z " /><path fill="rgb(254,254,254)" stroke="rgb(254,254,254)" stroke-width="1" opacity="1" d="M 136.5 421 L 137 423.5 L 136 423.5 L 136.5 421 Z " /><path fill="rgb(254,254,254)" stroke="rgb(254,254,254)" stroke-width="1" opacity="1" d="M 194.5 421 L 195 423.5 L 194 423.5 L 194.5 421 Z " /><path fill="rgb(254,254,254)" stroke="rgb(254,254,254)" stroke-width="1" opacity="1" d="M 219.5 421 L 222 424.5 L 220 423.5 L 219.5 421 Z " /><path fill="rgb(254,254,254)" stroke="rgb(254,254,254)" stroke-width="1" opacity="1" d="M 67.5 422 L 68 424.5 L 67 424.5 L 67.5 422 Z " /><path fill="rgb(254,254,254)" stroke="rgb(254,254,254)" stroke-width="1" opacity="1" d="M 86.5 422 L 87 424.5 L 86 424.5 L 86.5 422 Z " /><path fill="rgb(254,254,254)" stroke="rgb(254,254,254)" stroke-width="1" opacity="1" d="M 156.5 422 L 157 424.5 L 156 424.5 L 156.5 422 Z " /><path fill="rgb(254,254,254)" stroke="rgb(254,254,254)" stroke-width="1" opacity="1" d="M 106.5 423 L 107 425.5 L 106 425.5 L 106.5 423 Z " /><path fill="rgb(254,254,254)" stroke="rgb(254,254,254)" stroke-width="1" opacity="1" d="M 355.5 423 L 356 425.5 L 355 425.5 L 355.5 423 Z " /><path fill="rgb(254,254,254)" stroke="rgb(254,254,254)" stroke-width="1" opacity="1" d="M 274.5 424 L 275.5 426 L 274.5 424 Z " /><path fill="rgb(254,254,254)" stroke="rgb(254,254,254)" stroke-width="1" opacity="1" d="M 418.5 424 L 417.5 426 L 412.5 428 L 412.5 427 L 418.5 424 Z " /><path fill="rgb(254,254,254)" stroke="rgb(254,254,254)" stroke-width="1" opacity="1" d="M 245.5 425 L 248 428.5 L 246 427.5 L 245.5 425 Z " /><path fill="rgb(254,254,254)" stroke="rgb(254,254,254)" stroke-width="1" opacity="1" d="M 45.5 426 L 46 428.5 L 45 428.5 L 45.5 426 Z " /><path fill="rgb(254,254,254)" stroke="rgb(254,254,254)" stroke-width="1" opacity="1" d="M 135.5 426 L 136 428.5 L 135 428.5 L 135.5 426 Z " /><path fill="rgb(254,254,254)" stroke="rgb(254,254,254)" stroke-width="1" opacity="1" d="M 193.5 426 L 194 428.5 L 193 428.5 L 193.5 426 Z " /><path fill="rgb(254,254,254)" stroke="rgb(254,254,254)" stroke-width="1" opacity="1" d="M 222.5 426 L 224 428.5 L 223 428.5 L 222.5 426 Z " /><path fill="rgb(254,254,254)" stroke="rgb(254,254,254)" stroke-width="1" opacity="1" d="M 354.5 428 L 355 430.5 L 354 430.5 L 354.5 428 Z " /><path fill="rgb(254,254,254)" stroke="rgb(254,254,254)" stroke-width="1" opacity="1" d="M 309.5 429 L 312 429.5 L 309.5 430 L 309.5 429 Z " /><path fill="rgb(254,254,254)" stroke="rgb(254,254,254)" stroke-width="1" opacity="1" d="M 405.5 429 L 408 429.5 L 405.5 430 L 405.5 429 Z " /><path fill="rgb(254,254,254)" stroke="rgb(254,254,254)" stroke-width="1" opacity="1" d="M 290.5 430 L 306 430.5 L 290.5 431 L 290.5 430 Z " /><path fill="rgb(254,254,254)" stroke="rgb(254,254,254)" stroke-width="1" opacity="1" d="M 353.5 433 L 354 435.5 L 353 435.5 L 353.5 433 Z " /><path fill="rgb(254,254,254)" stroke="rgb(254,254,254)" stroke-width="1" opacity="1" d="M 352.5 438 L 353 440.5 L 352 440.5 L 352.5 438 Z " /><path fill="rgb(254,254,254)" stroke="rgb(254,254,254)" stroke-width="1" opacity="1" d="M 351.5 443 L 352 445.5 L 351 445.5 L 351.5 443 Z " /><path fill="rgb(254,254,254)" stroke="rgb(254,254,254)" stroke-width="1" opacity="1" d="M 350.5 448 L 351 450.5 L 350 450.5 L 350.5 448 Z " /><path fill="rgb(255,255,255)" stroke="rgb(255,255,255)" stroke-width="1" opacity="1" d="M 0 0 L 500 0 L 500 500 L 0 500 L 0 0 Z M 287 24 L 275 43 L 274 31 L 243 78 L 243 79 L 87 79 L 85 85 L 85 87 L 73 87 L 36 221 L 199 222 L 181 283 L 219 294 L 223 283 L 233 286 L 251 224 L 252 221 L 399 221 L 401 217 L 402 213 L 413 213 L 414 212 L 417 198 L 450 83 L 450 79 L 289 79 L 288 73 L 288 25 L 287 24 Z M 203 325 L 200 332 L 200 334 L 193 334 L 190 340 L 181 385 L 181 390 L 173 426 L 174 429 L 194 429 L 195 424 L 195 420 L 204 420 L 207 406 Q 206 403 209 404 L 223 429 L 248 429 L 243 421 L 258 420 L 237 386 L 236 382 L 259 362 Q 261 363 260 360 L 268 355 L 270 354 L 262 392 Q 260 410 267 419 L 276 426 L 291 431 L 306 431 L 318 428 Q 328 423 336 415 Q 347 407 352 392 L 364 335 L 364 331 L 343 331 L 341 339 L 341 340 L 334 340 L 332 342 L 323 391 L 319 402 L 311 404 Q 309 402 304 403 L 299 400 L 294 393 L 294 383 L 305 332 L 283 331 L 281 339 L 281 340 L 274 340 L 272 342 L 271 351 L 244 351 L 216 374 L 212 377 L 222 331 Q 223 325 222 325 L 203 325 Z M 73 331 L 71 339 L 71 340 L 64 340 L 62 342 L 45 427 L 46 429 L 67 429 L 68 425 L 68 420 L 77 420 L 95 332 L 73 331 Z M 146 350 L 137 352 L 131 355 L 128 357 L 129 353 L 129 351 L 109 351 L 108 359 L 107 360 L 99 360 L 85 428 L 86 429 L 106 429 L 107 422 Q 109 418 116 420 L 117 419 L 122 389 L 125 378 L 131 377 L 139 379 L 143 386 L 143 391 L 135 427 L 136 429 L 156 429 L 157 425 L 157 420 L 166 420 L 174 383 L 174 367 L 170 359 Q 166 353 159 351 L 146 350 Z M 414 350 L 405 352 L 397 356 L 398 353 L 398 351 L 378 351 L 377 359 L 376 360 L 368 360 L 350 449 Q 349 454 351 454 L 370 454 L 372 447 L 373 445 L 380 445 L 381 444 L 383 428 L 391 430 L 408 430 L 414 428 Q 424 423 431 415 L 443 401 L 447 386 L 446 372 L 441 362 Q 433 350 414 350 Z " /><path fill="rgb(255,255,255)" stroke="rgb(255,255,255)" stroke-width="1" opacity="1" d="M 395.5 377 Q 407.3 375.5 412 380 L 416 388.5 L 416 394.5 L 412.5 403 Q 409 405.5 401.5 404 L 393 397.5 Q 390.1 393.9 391 386.5 L 393 379.5 L 395.5 377 Z " /></svg>